PathFileType	4	(X/Y/Z)	31_1_3_p0_0-390.trc
DataRate	CameraRate	NumFrames	NumMarkers	Units	OrigDataRate	OrigDataStartFrame	OrigNumFrames
59.0	59.0	6	27	m	59.0	244	391
Frame#	Time	RHip			RKnee			RAnkle			RBigToe			RSmallToe			RHeel			LHip			LKnee			LAnkle			LBigToe			LSmallToe			LHeel			Neck			Head			Nose			RShoulder			RElbow			RWrist			RThumb			RIndex			RPinky			LShoulder			LElbow			LWrist			LThumb			LIndex			LPinky			
		X1	Y1	Z1	X2	Y2	Z2	X3	Y3	Z3	X4	Y4	Z4	X5	Y5	Z5	X6	Y6	Z6	X7	Y7	Z7	X8	Y8	Z8	X9	Y9	Z9	X10	Y10	Z10	X11	Y11	Z11	X12	Y12	Z12	X13	Y13	Z13	X14	Y14	Z14	X15	Y15	Z15	X16	Y16	Z16	X17	Y17	Z17	X18	Y18	Z18	X19	Y19	Z19	X20	Y20	Z20	X21	Y21	Z21	X22	Y22	Z22	X23	Y23	Z23	X24	Y24	Z24	X25	Y25	Z25	X26	Y26	Z26	X27	Y27	Z27	
244	4.135593220338983	0.1923886840032963	0.585709113330556	0.18204773952557776	0.17199952115700007	0.819619926984755	0.5364730552920606	0.11131359398849493	1.0664370903512843	0.9182726007594147	0.06754606790037503	0.8152910294569325	1.0028319007060047	0.14175763889874227	0.8576187933520881	1.0007354261904389	0.10313177961098603	1.1412868149346358	0.9512371974265285	-0.034968104636166605	0.6228030830820672	0.14969282710617532	-0.06359842152424346	0.8243250965525596	0.5214134562428555	-0.0862216623869432	1.016525517383723	0.884925829763059	-0.09076725664782052	0.8819326148351445	0.9897169901671816	-0.14766394180233153	0.9206116689435254	0.9667662545448289	-0.07313268328041192	1.0911969535065518	0.924076755944652	0.10483958888103778	0.23058086564059177	-0.3701748784150809	0.10450281058671688	0.06765324241308851	-0.5779846214644788	0.08903465000309584	0.08166115438024452	-0.43473980507214854	0.27240712651407467	0.2669818042462278	-0.29937450550925165	0.34271971533467005	0.418883012191367	-0.07799519809068094	0.2179546222512682	0.27987899188113213	0.05618065298966811	0.1212601515876684	0.23140850539003402	0.027585708396002044	0.11975093983715213	0.2105802488356834	0.04285739819280212	0.1349808600897344	0.21282782648967571	0.1057632922252993	-0.0462986368968451	0.31837590449563796	-0.3293099859157854	-0.15255141739681333	0.5624022399290034	-0.18904274806936242	-0.08232593118715635	0.43690348057569517	0.017658844295695635	-0.02779684498468302	0.36938092398938716	0.08304954237699778	-0.04612894909565883	0.35032106620053816	0.11003896273977971	-0.08046908051150983	0.36800959955181894	0.13462089512875675
245	4.1525423728813555	0.18957991870030105	0.601346954058922	0.17965090391158264	0.1720449229519744	0.8196511842228384	0.5364663922281737	0.11127821607132954	1.0665472491348418	0.9182610453298257	0.06765977281449326	0.8149974115521993	1.0026852906342976	0.13713207135468147	0.8552385026381943	1.0001101286637955	0.09795136087169465	1.1634370797064268	0.9570333731542217	-0.033694525294110426	0.6247141580272376	0.15011295318596987	-0.06355056504879088	0.8242664341040865	0.5213497672653888	-0.08622293657955737	1.0165792368672233	0.8848826294325304	-0.09064061513492791	0.8812714694922212	0.9893600970487774	-0.14753925658170491	0.92041737746149	0.9665319112223499	-0.07323164102743272	1.0914169618768914	0.9241606328336903	0.10479381720317668	0.2306914132658869	-0.3703041401781214	0.10421331960616483	0.06853763910262167	-0.5748601626507296	0.08894767622924235	0.08176062321440285	-0.43480704346647964	0.26886957845311854	0.2650136472933941	-0.305639368400912	0.34681996644715823	0.4193846842256566	-0.07804806125897884	0.21972394265583758	0.2933153209734889	0.05464451079641317	0.11651484819011093	0.2576755196890484	0.0549938378301549	0.11149074338033396	0.2328518940478024	0.07906655260796998	0.1296325828153237	0.24865390309440147	0.12551928161208142	-0.0460106062473232	0.3166132294047524	-0.3324648874607362	-0.15232426537564608	0.5599996220055421	-0.19259380759983372	-0.08237332989849541	0.43352580162397786	0.01320152796210908	-0.026700687771009667	0.35714489323403725	0.05603435982689255	-0.03575928296663857	0.32745861080581384	0.08860626415464672	-0.06517781635318418	0.365040202405967	0.1249122596216997
246	4.169491525423729	0.18868602398602932	0.5824389338506861	0.17785291818966473	0.1720120091832316	0.8195583338142478	0.5364287534622999	0.11127951782798244	1.0663180405272417	0.9181623144586005	0.06813482520990559	0.8158986773087195	1.002534849430857	0.13752319741258967	0.8559155779050628	0.9998852333359903	0.10303476639086243	1.140925851088462	0.9509142577830231	-0.029785609011887496	0.6102940179262796	0.15277560884657984	-0.06350072358661324	0.8242218244754537	0.5213804563665737	-0.08626636028685387	1.0164835526506506	0.8848875269261416	-0.09063286173943104	0.8816425162539173	0.9895330616984812	-0.14758230244725246	0.9205750653207732	0.9666805093544569	-0.07328142428654752	1.0911794002882322	0.9240611483852484	0.10174372184566632	0.24254436443584457	-0.37492332661176675	0.10087279722497508	0.0650206374320981	-0.5806129774126644	0.08215690286590982	0.08308017368833988	-0.4325196387040467	0.2689019353695804	0.266295283369204	-0.3026287181486143	0.3490437764982564	0.40669708195608417	-0.07127317965091125	0.21176156478169011	0.3118222458279638	0.06383418705700633	0.11536185719799306	0.27122855564212534	0.07961305964447184	0.10925333893490709	0.2439320474590136	0.10953096345790343	0.12928881612184626	0.27938727009761033	0.1600648274185002	-0.04968832383995875	0.3051735479320048	-0.3287522366099711	-0.1522175220927211	0.5594963447778567	-0.19252590024224084	-0.08127246074435839	0.42431828906582014	-0.004261196481398335	-0.020039032197026876	0.3526908865705798	0.04243724357121629	-0.02700525232864612	0.3108398878768698	0.07362187031869419	-0.04756678699961652	0.3630698051302069	0.11089131365519171
247	4.186440677966102	0.18891031599596464	0.5861824034358571	0.18551079483937527	0.1719773999690357	0.8194979319189172	0.5364623920936126	0.11128841756626708	1.0664684566020899	0.9182554620634028	0.06364166398316266	0.8011669437281878	1.0011405874118373	0.13706179458548912	0.8550479127516337	1.0001943157430708	0.10307570196419226	1.1411128406178574	0.9511079353223264	-0.03381023139145165	0.6093676413310556	0.15289316402135342	-0.062459153208599696	0.8224637218690949	0.5178524338709036	-0.0861976825528186	1.0165525917432572	0.884729948913835	-0.09066458838174735	0.8811744338164034	0.9893091689204575	-0.14758533276739072	0.9204370531528469	0.9665190914783552	-0.07322578089665903	1.0911331779024802	0.9239652738585341	0.10162021511798917	0.24369265000891677	-0.3718801291160302	0.10055908809844785	0.06772107020348285	-0.5746420199628676	0.08216901856462569	0.08313759919428292	-0.4324632155731745	0.26888631678056546	0.26657114498756673	-0.30263128837155384	0.3468481345666022	0.4202324066211777	-0.07473124018042795	0.21169493678399035	0.34559810527292406	0.08352559630234	0.11905324955565406	0.282309625610024	0.10962994716973556	0.11879456472638049	0.2779983857734164	0.15334378198349652	0.12806823442551707	0.31443625231696815	0.1829931974806308	-0.04955670538497113	0.30540634920455584	-0.32873742380432536	-0.14783956330203613	0.5430731630764617	-0.19141164547249243	-0.0765932049932646	0.4129418806566522	-0.02599587755880115	-0.011281886058395538	0.33695836029150966	0.03733432346051893	-0.02219547968930044	0.26874263260277376	0.06696975314651842	-0.04771386052620307	0.32882752604889953	0.08719642297656295
248	4.203389830508475	0.1897892574927666	0.5911780323668117	0.19285020174236905	0.17198531792023133	0.8195085838702717	0.5366633834899356	0.11124196141366946	1.0664639370769688	0.9181731189766631	0.0634016596594837	0.801179436042029	1.0011995636886255	0.1367455724864674	0.8549162856980353	1.0003024783501446	0.09931792777433945	1.1607377334874953	0.952458665668131	-0.03381689094067606	0.6119042772092359	0.1569357552329286	-0.06359915980369098	0.8247556283749075	0.5253993727881462	-0.08622615436981536	1.016515822837233	0.8849716506308083	-0.0853529351168288	0.8618982434117541	0.9842140293343408	-0.1474906886379291	0.9202401023357777	0.9663644888635806	-0.07326466745769505	1.0913342973816649	0.9241939909353403	0.10165837562281149	0.24370864161728328	-0.37186125549732935	0.10053254910383674	0.0676772766765881	-0.5748189990726056	0.08212980967168787	0.08320026363466458	-0.43244025608456355	0.26897397556911745	0.266369256868112	-0.30251733477683895	0.3562329051128471	0.4323652986448027	-0.07721919863508013	0.21356168467540337	0.3365889931102773	0.10125793392368027	0.12590963466858104	0.2884474103398575	0.1442938553087712	0.12655607376537553	0.28812381859642217	0.18354320407660182	0.13277248648715737	0.33379674671821896	0.19580097104797692	-0.04651732755399824	0.3178218497931148	-0.3293350958327058	-0.14796339914738663	0.54040319410627	-0.1939495450849995	-0.07536941831105427	0.39541737257901244	-0.03577913748537807	-0.011434876218395024	0.3195997953852909	0.030538767585673986	-0.01394544653471338	0.26338973639783814	0.05564697744721762	-0.047296885641123665	0.31680596727181126	0.08143029830340914
249	4.220338983050848	0.18893840702093997	0.5922458130961529	0.19270585418873437	0.17184510366222597	0.8194070064427869	0.5365799024614282	0.11129077837703398	1.06643802127877	0.9181554072093527	0.06339357770820454	0.8014770469775434	1.0011925365561298	0.13347403584842668	0.8732418914848004	1.0020005384230377	0.10313313461602713	1.1411526411373751	0.9510861133164693	-0.0339470601703064	0.6120825327236197	0.1571198375921512	-0.06357091277821039	0.8247488587952874	0.5252912680165882	-0.0861491664459417	1.0163977653597744	0.8846135524547128	-0.08953084008076607	0.879079049916779	0.9859007749986001	-0.14620480008644152	0.918128044269112	0.9625743845888898	-0.06899597803497678	1.0706304662033839	0.9227160076283687	0.10167975624923244	0.24387887352101925	-0.3718801292883001	0.10062190220920857	0.0657683476543901	-0.5775276636538935	0.0821256735064069	0.08313604568914666	-0.4324158400338216	0.26652524184268633	0.27880286043349056	-0.3068917117905515	0.36058797171606144	0.4337118911318383	-0.07719631201070906	0.2137231708947149	0.3432650880981442	0.11109164957620457	0.13621217417942624	0.32459482697740055	0.1750726480909978	0.13098492681649004	0.2828375104450368	0.20385003462223958	0.13321164301591415	0.3438618160868442	0.21123984936343837	-0.05408213395373631	0.3051869485484271	-0.32525191089605787	-0.15149250502935038	0.5313784794297263	-0.1848928474616102	-0.07531153416408581	0.3940495985508421	-0.03941905385011079	-0.01106273249258226	0.3121154797756181	0.01545639815507747	-0.009493716631856037	0.2506073185637984	0.05482908652344226	-0.046729478644953755	0.3117557117055886	0.0683226574764242
